<mxfile host="65bd71144e">
    <diagram id="QJblicdv3oYDM_cmlXET" name="Page-1">
        <mxGraphModel dx="470" dy="663" grid="1" gridSize="10" guides="1" tooltips="1" connect="1" arrows="1" fold="1" page="1" pageScale="1" pageWidth="827" pageHeight="1169" math="0" shadow="0">
            <root>
                <mxCell id="0"/>
                <mxCell id="1" parent="0"/>
                <mxCell id="2" value="Saket.ECS" style="rounded=0;whiteSpace=wrap;html=1;" parent="1" vertex="1">
                    <mxGeometry x="440" y="720" width="120" height="80" as="geometry"/>
                </mxCell>
                <mxCell id="3" value="Saket.GUI" style="rounded=0;whiteSpace=wrap;html=1;" parent="1" vertex="1">
                    <mxGeometry x="440" y="600" width="120" height="80" as="geometry"/>
                </mxCell>
                <mxCell id="4" value="" style="endArrow=none;startArrow=diamondThin;endFill=0;startFill=1;html=1;verticalAlign=bottom;labelBackgroundColor=none;strokeWidth=1;startSize=16;endSize=8;exitX=0.5;exitY=0;exitDx=0;exitDy=0;entryX=0.5;entryY=1;entryDx=0;entryDy=0;" parent="1" source="2" target="3" edge="1">
                    <mxGeometry width="160" relative="1" as="geometry">
                        <mxPoint x="690" y="680" as="sourcePoint"/>
                        <mxPoint x="850" y="680" as="targetPoint"/>
                    </mxGeometry>
                </mxCell>
                <mxCell id="18" style="edgeStyle=none;html=1;startSize=16;exitX=0.5;exitY=0;exitDx=0;exitDy=0;entryX=0.5;entryY=1;entryDx=0;entryDy=0;" parent="1" source="5" target="17" edge="1">
                    <mxGeometry relative="1" as="geometry"/>
                </mxCell>
                <mxCell id="23" style="edgeStyle=none;html=1;entryX=0.5;entryY=1;entryDx=0;entryDy=0;exitX=0.5;exitY=0;exitDx=0;exitDy=0;" parent="1" source="5" target="22" edge="1">
                    <mxGeometry relative="1" as="geometry"/>
                </mxCell>
                <mxCell id="65" style="edgeStyle=none;html=1;entryX=0.5;entryY=1;entryDx=0;entryDy=0;" parent="1" source="5" target="37" edge="1">
                    <mxGeometry relative="1" as="geometry"/>
                </mxCell>
                <mxCell id="66" value="Not sure if this transformation&lt;br&gt;is worth it" style="edgeLabel;html=1;align=center;verticalAlign=middle;resizable=0;points=[];" parent="65" vertex="1" connectable="0">
                    <mxGeometry x="0.4106" y="-5" relative="1" as="geometry">
                        <mxPoint x="37" y="31" as="offset"/>
                    </mxGeometry>
                </mxCell>
                <mxCell id="5" value="Shape" style="rounded=0;whiteSpace=wrap;html=1;" parent="1" vertex="1">
                    <mxGeometry x="1121" y="520" width="120" height="80" as="geometry"/>
                </mxCell>
                <mxCell id="7" style="edgeStyle=none;html=1;entryX=0.5;entryY=1;entryDx=0;entryDy=0;startSize=16;" parent="1" source="6" target="5" edge="1">
                    <mxGeometry relative="1" as="geometry"/>
                </mxCell>
                <mxCell id="6" value=".svg" style="rounded=0;whiteSpace=wrap;html=1;" parent="1" vertex="1">
                    <mxGeometry x="1121" y="640" width="120" height="80" as="geometry"/>
                </mxCell>
                <mxCell id="11" style="edgeStyle=none;html=1;startSize=16;" parent="1" source="8" target="10" edge="1">
                    <mxGeometry relative="1" as="geometry"/>
                </mxCell>
                <mxCell id="8" value=".ttf&lt;br&gt;.otf&lt;br&gt;.woff&lt;br&gt;.woff2" style="rounded=0;whiteSpace=wrap;html=1;" parent="1" vertex="1">
                    <mxGeometry x="1278" y="760" width="120" height="80" as="geometry"/>
                </mxCell>
                <mxCell id="14" style="edgeStyle=none;html=1;entryX=0.5;entryY=1;entryDx=0;entryDy=0;startSize=16;exitX=0.5;exitY=0;exitDx=0;exitDy=0;" parent="1" source="10" target="5" edge="1">
                    <mxGeometry relative="1" as="geometry"/>
                </mxCell>
                <mxCell id="10" value="FontFace" style="rounded=0;whiteSpace=wrap;html=1;" parent="1" vertex="1">
                    <mxGeometry x="1280" y="640" width="120" height="80" as="geometry"/>
                </mxCell>
                <mxCell id="20" style="edgeStyle=none;html=1;startSize=16;" parent="1" source="17" target="19" edge="1">
                    <mxGeometry relative="1" as="geometry"/>
                </mxCell>
                <mxCell id="17" value="MSDF" style="rounded=0;whiteSpace=wrap;html=1;" parent="1" vertex="1">
                    <mxGeometry x="1121" y="400" width="120" height="80" as="geometry"/>
                </mxCell>
                <mxCell id="19" value="SDF Rendering&lt;br&gt;from texture lookup" style="rounded=0;whiteSpace=wrap;html=1;" parent="1" vertex="1">
                    <mxGeometry x="1121" y="280" width="120" height="80" as="geometry"/>
                </mxCell>
                <mxCell id="21" value="&lt;h1&gt;2D Implicit surface rendering&lt;/h1&gt;&lt;p&gt;The engine has built-in support for crisp vector shape rendering.&amp;nbsp;&lt;/p&gt;&lt;p&gt;&lt;span&gt;A common shape format is defined.&amp;nbsp;&lt;/span&gt;&lt;span&gt;It exclusively uses Quadradic&amp;nbsp;&lt;/span&gt;&lt;span&gt;Bezir curves to describe shapes. This can allow faster computation by creating a uniform datastructure that can be optimized further.&amp;nbsp;&lt;/span&gt;&lt;br&gt;&lt;/p&gt;&lt;p&gt;&lt;span&gt;Open Questions:&lt;/span&gt;&lt;/p&gt;&lt;p&gt;&lt;span&gt;How much of this can be converted to compute shaders?&lt;/span&gt;&lt;br&gt;&lt;/p&gt;&lt;p&gt;&lt;br&gt;&lt;/p&gt;" style="text;html=1;strokeColor=none;fillColor=none;spacing=5;spacingTop=-20;overflow=hidden;rounded=0;fillOpacity=100;whiteSpace=wrap;" parent="1" vertex="1">
                    <mxGeometry x="870" y="50" width="550" height="170" as="geometry"/>
                </mxCell>
                <mxCell id="26" style="edgeStyle=none;html=1;" parent="1" source="22" target="25" edge="1">
                    <mxGeometry relative="1" as="geometry"/>
                </mxCell>
                <mxCell id="22" value="Triangulation" style="rounded=0;whiteSpace=wrap;html=1;" parent="1" vertex="1">
                    <mxGeometry x="961" y="400" width="120" height="80" as="geometry"/>
                </mxCell>
                <mxCell id="25" value="Triangle &lt;br&gt;Rasterization Rendering" style="rounded=0;whiteSpace=wrap;html=1;" parent="1" vertex="1">
                    <mxGeometry x="961" y="280" width="120" height="80" as="geometry"/>
                </mxCell>
                <mxCell id="33" value="Triangulation&lt;br&gt;Delaunay, Earcutting" style="rounded=0;whiteSpace=wrap;html=1;fillColor=#69311D;" parent="1" vertex="1">
                    <mxGeometry x="1480" y="280" width="120" height="40" as="geometry"/>
                </mxCell>
                <mxCell id="34" value="SVG loader" style="rounded=0;whiteSpace=wrap;html=1;fillColor=#69311D;" parent="1" vertex="1">
                    <mxGeometry x="1480" y="330" width="120" height="30" as="geometry"/>
                </mxCell>
                <mxCell id="35" value="Texture Packer" style="rounded=0;whiteSpace=wrap;html=1;fillColor=#69311D;" parent="1" vertex="1">
                    <mxGeometry x="1480" y="450" width="120" height="30" as="geometry"/>
                </mxCell>
                <mxCell id="36" value="True&lt;br&gt;Runtime SDF Rendering&amp;nbsp;" style="rounded=0;whiteSpace=wrap;html=1;" parent="1" vertex="1">
                    <mxGeometry x="1280" y="280" width="120" height="80" as="geometry"/>
                </mxCell>
                <mxCell id="38" style="edgeStyle=none;html=1;entryX=0.5;entryY=1;entryDx=0;entryDy=0;" parent="1" source="37" target="36" edge="1">
                    <mxGeometry relative="1" as="geometry"/>
                </mxCell>
                <mxCell id="37" value="SDF primitives" style="rounded=0;whiteSpace=wrap;html=1;" parent="1" vertex="1">
                    <mxGeometry x="1280" y="400" width="120" height="80" as="geometry"/>
                </mxCell>
                <mxCell id="42" style="edgeStyle=none;html=1;entryX=0.5;entryY=1;entryDx=0;entryDy=0;exitX=0.5;exitY=0;exitDx=0;exitDy=0;" parent="1" source="41" target="5" edge="1">
                    <mxGeometry relative="1" as="geometry"/>
                </mxCell>
                <mxCell id="41" value="Shape Editor" style="rounded=0;whiteSpace=wrap;html=1;" parent="1" vertex="1">
                    <mxGeometry x="961" y="640" width="120" height="80" as="geometry"/>
                </mxCell>
                <mxCell id="43" value="Extra Necessary Tools" style="text;html=1;strokeColor=none;fillColor=none;align=center;verticalAlign=middle;whiteSpace=wrap;rounded=0;" parent="1" vertex="1">
                    <mxGeometry x="1480" y="240" width="120" height="30" as="geometry"/>
                </mxCell>
                <mxCell id="44" value="Arbitrary shapes to quadradic bezir curve converter" style="rounded=0;whiteSpace=wrap;html=1;fillColor=#69311D;" parent="1" vertex="1">
                    <mxGeometry x="1480" y="490" width="120" height="60" as="geometry"/>
                </mxCell>
                <mxCell id="45" value="OpenType Loader" style="rounded=0;whiteSpace=wrap;html=1;fillColor=#69311D;" parent="1" vertex="1">
                    <mxGeometry x="1480" y="560" width="120" height="30" as="geometry"/>
                </mxCell>
                <mxCell id="46" value="De/Serialization" style="rounded=0;whiteSpace=wrap;html=1;fillColor=#69311D;" parent="1" vertex="1">
                    <mxGeometry x="1480" y="640" width="120" height="30" as="geometry"/>
                </mxCell>
                <mxCell id="47" value="XML interpreter" style="rounded=0;whiteSpace=wrap;html=1;fillColor=#69311D;" parent="1" vertex="1">
                    <mxGeometry x="1480" y="370" width="120" height="30" as="geometry"/>
                </mxCell>
                <mxCell id="48" value="CSS interpreter" style="rounded=0;whiteSpace=wrap;html=1;fillColor=#69311D;" parent="1" vertex="1">
                    <mxGeometry x="1480" y="410" width="120" height="30" as="geometry"/>
                </mxCell>
                <mxCell id="52" value="TrueType Interpreter" style="rounded=0;whiteSpace=wrap;html=1;fillColor=#69311D;" parent="1" vertex="1">
                    <mxGeometry x="1480" y="600" width="120" height="30" as="geometry"/>
                </mxCell>
                <mxCell id="53" value="Text Layouting" style="rounded=0;whiteSpace=wrap;html=1;fillColor=#69311D;" parent="1" vertex="1">
                    <mxGeometry x="390" y="20" width="120" height="30" as="geometry"/>
                </mxCell>
                <mxCell id="55" value="Text Breaking" style="rounded=0;whiteSpace=wrap;html=1;fillColor=#69311D;" parent="1" vertex="1">
                    <mxGeometry x="390" y="60" width="120" height="30" as="geometry"/>
                </mxCell>
                <mxCell id="56" value="Saket.Typography" style="rounded=0;whiteSpace=wrap;html=1;" parent="1" vertex="1">
                    <mxGeometry x="240" y="20" width="120" height="80" as="geometry"/>
                </mxCell>
                <mxCell id="57" value="&lt;h1&gt;Text Support&lt;/h1&gt;&lt;p&gt;&lt;br&gt;&lt;/p&gt;&lt;p&gt;Support for&amp;nbsp;&lt;/p&gt;&lt;p&gt;Kerning,&lt;/p&gt;&lt;p&gt;text direction&lt;/p&gt;&lt;p&gt;latex?&lt;/p&gt;&lt;p&gt;&lt;br&gt;&lt;/p&gt;&lt;p&gt;&lt;br&gt;&lt;/p&gt;" style="text;html=1;strokeColor=none;fillColor=none;spacing=5;spacingTop=-20;overflow=hidden;rounded=0;fillOpacity=100;whiteSpace=wrap;" parent="1" vertex="1">
                    <mxGeometry x="40" y="20" width="160" height="170" as="geometry"/>
                </mxCell>
                <mxCell id="60" value="&lt;h1&gt;Graphical User Interface&lt;/h1&gt;&lt;p&gt;&lt;br&gt;&lt;/p&gt;&lt;p&gt;&lt;br&gt;&lt;/p&gt;" style="text;html=1;strokeColor=none;fillColor=none;spacing=5;spacingTop=-20;overflow=hidden;rounded=0;fillOpacity=100;whiteSpace=wrap;" parent="1" vertex="1">
                    <mxGeometry x="1680" y="40" width="550" height="170" as="geometry"/>
                </mxCell>
                <mxCell id="61" value="Triangulation&lt;br&gt;Delauny, Earcutitng" style="rounded=0;whiteSpace=wrap;html=1;fillColor=#69311D;" parent="1" vertex="1">
                    <mxGeometry x="2320" y="160" width="120" height="40" as="geometry"/>
                </mxCell>
                <mxCell id="80" style="edgeStyle=none;html=1;entryX=0.5;entryY=1;entryDx=0;entryDy=0;" parent="1" source="62" target="75" edge="1">
                    <mxGeometry relative="1" as="geometry"/>
                </mxCell>
                <mxCell id="62" value="Layouting" style="rounded=0;whiteSpace=wrap;html=1;" parent="1" vertex="1">
                    <mxGeometry x="1960" y="440" width="120" height="40" as="geometry"/>
                </mxCell>
                <mxCell id="67" value="&lt;span style=&quot;font-size: 12px&quot;&gt;Support for boolean operators&lt;/span&gt;" style="edgeLabel;html=1;align=center;verticalAlign=middle;resizable=0;points=[];" parent="1" vertex="1" connectable="0">
                    <mxGeometry x="1280.0047534933774" y="254.9999848094394" as="geometry">
                        <mxPoint x="-22" y="-3" as="offset"/>
                    </mxGeometry>
                </mxCell>
                <mxCell id="81" style="edgeStyle=none;html=1;entryX=0.5;entryY=1;entryDx=0;entryDy=0;" parent="1" source="68" target="62" edge="1">
                    <mxGeometry relative="1" as="geometry"/>
                </mxCell>
                <mxCell id="68" value="Widget Hirachy&lt;br&gt;ECS" style="rounded=0;whiteSpace=wrap;html=1;" parent="1" vertex="1">
                    <mxGeometry x="1960" y="560" width="120" height="40" as="geometry"/>
                </mxCell>
                <mxCell id="69" value="&lt;h1&gt;Heading&lt;/h1&gt;&lt;p&gt;To create a user interface a few components are needed. In it's nature it's a tree structure of reusable components.&lt;/p&gt;&lt;p&gt;&lt;br&gt;&lt;/p&gt;&lt;p&gt;Each window is a seperate hirachy.&lt;/p&gt;&lt;p&gt;&lt;br&gt;&lt;/p&gt;&lt;p&gt;&lt;br&gt;&lt;/p&gt;&lt;p&gt;&lt;br&gt;&lt;/p&gt;&lt;p&gt;&lt;br&gt;&lt;/p&gt;&lt;p&gt;&lt;br&gt;&lt;/p&gt;" style="text;html=1;strokeColor=none;fillColor=none;spacing=5;spacingTop=-20;whiteSpace=wrap;overflow=hidden;rounded=0;" parent="1" vertex="1">
                    <mxGeometry x="1680" y="160" width="190" height="430" as="geometry"/>
                </mxCell>
                <mxCell id="79" style="edgeStyle=none;html=1;" parent="1" source="75" target="78" edge="1">
                    <mxGeometry relative="1" as="geometry"/>
                </mxCell>
                <mxCell id="82" value="Spriterenderer" style="edgeLabel;html=1;align=center;verticalAlign=middle;resizable=0;points=[];" parent="79" vertex="1" connectable="0">
                    <mxGeometry x="-0.1917" y="-4" relative="1" as="geometry">
                        <mxPoint x="-4" y="-7" as="offset"/>
                    </mxGeometry>
                </mxCell>
                <mxCell id="75" value="Primitive list" style="rounded=0;whiteSpace=wrap;html=1;" parent="1" vertex="1">
                    <mxGeometry x="1960" y="320" width="120" height="40" as="geometry"/>
                </mxCell>
                <mxCell id="77" value="&lt;h1&gt;Fast iterative layouting&lt;/h1&gt;&lt;div&gt;A technique to layout a tree of objects by repreatly passing constrainsts to children and&amp;nbsp;&lt;/div&gt;" style="text;html=1;strokeColor=none;fillColor=none;spacing=5;spacingTop=-20;whiteSpace=wrap;overflow=hidden;rounded=0;" parent="1" vertex="1">
                    <mxGeometry x="2250" y="290" width="190" height="120" as="geometry"/>
                </mxCell>
                <mxCell id="78" value="Rendering" style="rounded=0;whiteSpace=wrap;html=1;" parent="1" vertex="1">
                    <mxGeometry x="1960" y="200" width="120" height="40" as="geometry"/>
                </mxCell>
                <mxCell id="83" value="Fast Iterrative Layouting" style="rounded=0;whiteSpace=wrap;html=1;" vertex="1" parent="1">
                    <mxGeometry x="2260" y="470" width="120" height="40" as="geometry"/>
                </mxCell>
                <mxCell id="87" value="&lt;h1&gt;Heading&lt;/h1&gt;&lt;p&gt;Copy coherent buffer of primitives to gpu for rendering.&lt;/p&gt;&lt;p&gt;Interop with windowing system.&lt;/p&gt;&lt;p&gt;Only render changes. Incremental rendering&lt;/p&gt;&lt;p&gt;Layouting&lt;/p&gt;&lt;p&gt;Collision detection/interaction and events&lt;/p&gt;&lt;p&gt;&lt;br&gt;&lt;/p&gt;&lt;p&gt;&lt;br&gt;&lt;/p&gt;&lt;p&gt;&lt;br&gt;&lt;/p&gt;&lt;p&gt;&lt;br&gt;&lt;/p&gt;&lt;p&gt;&lt;br&gt;&lt;/p&gt;&lt;p&gt;&lt;br&gt;&lt;/p&gt;" style="text;html=1;strokeColor=none;fillColor=none;spacing=5;spacingTop=-20;whiteSpace=wrap;overflow=hidden;rounded=0;" vertex="1" parent="1">
                    <mxGeometry x="1680" y="390" width="190" height="430" as="geometry"/>
                </mxCell>
            </root>
        </mxGraphModel>
    </diagram>
</mxfile>